{
    "asset" : {
        "generator" : "Khronos glTF Blender I/O v0.9.21",
        "version" : "2.0"
    },
    "scene" : 0,
    "scenes" : [
        {
            "name" : "Scene",
            "nodes" : [
                1,
                2,
                3,
                4,
                5
            ]
        }
    ],
    "nodes" : [
        {
            "name" : "Camera",
            "rotation" : [
                0.21018119156360626,
                -0.3012975752353668,
                0.40180477499961853,
                0.8388066291809082
            ],
            "translation" : [
                -8.478317260742188,
                -0.6242505311965942,
                1.5175378322601318
            ]
        },
        {
            "children" : [
                0
            ],
            "name" : "Light",
            "rotation" : [
                0.19609493017196655,
                0.7556421160697937,
                -0.2689303159713745,
                0.5641172528266907
            ],
            "scale" : [
                1,
                1,
                0.9999974966049194
            ],
            "translation" : [
                -1.1027686595916748,
                2.737170457839966,
                -5.944605350494385
            ]
        },
        {
            "name" : "RefImage",
            "rotation" : [
                0,
                0.7071067094802856,
                -0.7071068286895752,
                5.338507236274381e-08
            ],
            "translation" : [
                0,
                0.1899999976158142,
                0
            ]
        },
        {
            "mesh" : 0,
            "name" : "Placeholder"
        },
        {
            "name" : "Pin Profile Curve"
        },
        {
            "mesh" : 1,
            "name" : "Bowling Pin"
        }
    ],
    "materials" : [
        {
            "doubleSided" : true,
            "name" : "Pin",
            "pbrMetallicRoughness" : {
                "baseColorFactor" : [
                    0.800000011920929,
                    0.800000011920929,
                    0.800000011920929,
                    1
                ],
                "metallicFactor" : 0,
                "roughnessFactor" : 0.10000000149011612
            }
        },
        {
            "doubleSided" : true,
            "name" : "Pin Stripe",
            "pbrMetallicRoughness" : {
                "baseColorFactor" : [
                    0.8000000715255737,
                    0.0009290043963119388,
                    0.001822238089516759,
                    1
                ],
                "metallicFactor" : 0,
                "roughnessFactor" : 0.10000000149011612
            }
        }
    ],
    "meshes" : [
        {
            "name" : "Cube.001",
            "primitives" : [
                {
                    "attributes" : {
                        "POSITION" : 0,
                        "NORMAL" : 1,
                        "TEXCOORD_0" : 2
                    },
                    "indices" : 3
                }
            ]
        },
        {
            "name" : "CUBezierCurve.001",
            "primitives" : [
                {
                    "attributes" : {
                        "POSITION" : 4,
                        "NORMAL" : 5
                    },
                    "indices" : 6,
                    "material" : 0
                },
                {
                    "attributes" : {
                        "POSITION" : 7,
                        "NORMAL" : 8
                    },
                    "indices" : 9,
                    "material" : 1
                }
            ]
        }
    ],
    "accessors" : [
        {
            "bufferView" : 0,
            "componentType" : 5126,
            "count" : 24,
            "max" : [
                0.05999999865889549,
                0.3799999952316284,
                0.05999999865889549
            ],
            "min" : [
                -0.05999999865889549,
                0,
                -0.05999999865889549
            ],
            "type" : "VEC3"
        },
        {
            "bufferView" : 1,
            "componentType" : 5126,
            "count" : 24,
            "type" : "VEC3"
        },
        {
            "bufferView" : 2,
            "componentType" : 5126,
            "count" : 24,
            "type" : "VEC2"
        },
        {
            "bufferView" : 3,
            "componentType" : 5123,
            "count" : 36,
            "type" : "SCALAR"
        },
        {
            "bufferView" : 4,
            "componentType" : 5126,
            "count" : 782,
            "max" : [
                0.058863043785095215,
                0.3799999952316284,
                0.05886305123567581
            ],
            "min" : [
                -0.05886305868625641,
                0,
                -0.058863066136837006
            ],
            "type" : "VEC3"
        },
        {
            "bufferView" : 5,
            "componentType" : 5126,
            "count" : 782,
            "type" : "VEC3"
        },
        {
            "bufferView" : 6,
            "componentType" : 5123,
            "count" : 4440,
            "type" : "SCALAR"
        },
        {
            "bufferView" : 7,
            "componentType" : 5126,
            "count" : 80,
            "max" : [
                0.03572029247879982,
                0.3038431406021118,
                0.03572029620409012
            ],
            "min" : [
                -0.03572029620409012,
                0.23464684188365936,
                -0.03572029620409012
            ],
            "type" : "VEC3"
        },
        {
            "bufferView" : 8,
            "componentType" : 5126,
            "count" : 80,
            "type" : "VEC3"
        },
        {
            "bufferView" : 9,
            "componentType" : 5123,
            "count" : 240,
            "type" : "SCALAR"
        }
    ],
    "bufferViews" : [
        {
            "buffer" : 0,
            "byteLength" : 288,
            "byteOffset" : 0
        },
        {
            "buffer" : 0,
            "byteLength" : 288,
            "byteOffset" : 288
        },
        {
            "buffer" : 0,
            "byteLength" : 192,
            "byteOffset" : 576
        },
        {
            "buffer" : 0,
            "byteLength" : 72,
            "byteOffset" : 768
        },
        {
            "buffer" : 0,
            "byteLength" : 9384,
            "byteOffset" : 840
        },
        {
            "buffer" : 0,
            "byteLength" : 9384,
            "byteOffset" : 10224
        },
        {
            "buffer" : 0,
            "byteLength" : 8880,
            "byteOffset" : 19608
        },
        {
            "buffer" : 0,
            "byteLength" : 960,
            "byteOffset" : 28488
        },
        {
            "buffer" : 0,
            "byteLength" : 960,
            "byteOffset" : 29448
        },
        {
            "buffer" : 0,
            "byteLength" : 480,
            "byteOffset" : 30408
        }
    ],
    "buffers" : [
        {
            "byteLength" : 30888,
            "uri" : "data:application/octet-stream;base64,"
        }
    ]
}
